<svg xmlns="http://www.w3.org/2000/svg" width="24" height="24" viewBox="0 0 24 24">
    <g data-name="그룹 2897">
        <path data-name="패스 1239" d="M0 0h24v24H0z" style="fill:none"/>
        <path data-name="패스 1240" d="M0 0h24v24H0z" style="opacity:.87;fill:none"/>
    </g>
    <path data-name="패스 1241" d="M16.513 7.257h-.894V5.469a4.469 4.469 0 0 0-8.938 0v1.788h-.893A1.793 1.793 0 0 0 4 9.044v8.938a1.793 1.793 0 0 0 1.788 1.788h10.725a1.793 1.793 0 0 0 1.787-1.788V9.044a1.793 1.793 0 0 0-1.787-1.787zM11.15 15.3a1.788 1.788 0 1 1 1.788-1.788A1.793 1.793 0 0 1 11.15 15.3zM8.469 7.257V5.469a2.681 2.681 0 0 1 5.363 0v1.788z" transform="translate(.85 1.115)" style="fill:#0a0a0a"/>
</svg>
