<svg xmlns="http://www.w3.org/2000/svg" width="24" height="24" viewBox="0 0 24 24">
    <g data-name="그룹 2897">
        <path data-name="패스 1239" d="M0 0h24v24H0z" style="fill:none"/>
        <path data-name="패스 1240" d="M0 0h24v24H0z" style="opacity:.87;fill:none"/>
    </g>
    <path data-name="합치기 43" d="M21424.787 17364.029a1.789 1.789 0 0 1-1.787-1.785v-8.937a1.794 1.794 0 0 1 1.787-1.791h8.188v-1.861a2.757 2.757 0 0 0-2.7-2.793 2.712 2.712 0 0 0-2.609 2.094.9.9 0 0 1-1.1.672.932.932 0 0 1-.646-1.135 4.528 4.528 0 0 1 4.359-3.492 4.584 4.584 0 0 1 4.5 4.654v1.861h.738a1.8 1.8 0 0 1 1.785 1.791v8.938a1.791 1.791 0 0 1-1.785 1.785zm3.578-6.252a1.786 1.786 0 1 0 1.785-1.791 1.791 1.791 0 0 0-1.785 1.791z" transform="translate(-21418.15 -17343.146)" style="fill:#0a0a0a"/>
</svg>
