<svg xmlns="http://www.w3.org/2000/svg" width="90" height="90" viewBox="0 0 90 90">
    <defs>
        <filter id="mt8ebmlv0a" width="90" height="90" x="0" y="0" filterUnits="userSpaceOnUse">
            <feOffset dx="2" dy="2"/>
            <feGaussianBlur result="blur" stdDeviation="3"/>
            <feFlood flood-opacity=".2"/>
            <feComposite in2="blur" operator="in"/>
            <feComposite in="SourceGraphic"/>
        </filter>
    </defs>
    <g>
        <g filter="url(#mt8ebmlv0a)" transform="translate(1568 -4773) matrix(1, 0, 0, 1, -1568, 4773)">
            <circle cx="36" cy="36" r="36" fill="#fff" transform="translate(7 7)"/>
        </g>
        <path fill="#ff8900" d="M1624.539 297.111a36 36 0 1 0 36 36 36.043 36.043 0 0 0-36-36zm15.751 33a3 3 0 1 1 0 6h-12.75v12.753a3 3 0 1 1-6 0v-12.75h-12.752a3 3 0 1 1 0-6h12.752v-12.757a3 3 0 0 1 6 0v12.753z" transform="translate(1568 -4773) translate(-3149.539 4482.89)"/>
    </g>
</svg>
