<svg xmlns="http://www.w3.org/2000/svg" width="32" height="32" viewBox="0 0 32 32">
    <g fill-rule="evenodd">
        <path fill="#ff8900" d="M1583.333 583.333a16 16 0 1 0 16 16 16 16 0 0 0-16-16z" transform="translate(-569.664 -296) translate(-997.669 -287.333)"/>
        <path fill="#fff" d="M1587.54 595.91a1.054 1.054 0 0 0-1.376.191 1.2 1.2 0 0 0-.289.8v15.156a1.2 1.2 0 0 0 .289.8 1.055 1.055 0 0 0 1.376.191l11.585-7.595a1.145 1.145 0 0 0 .449-.543 1.176 1.176 0 0 0-.43-1.4z" transform="translate(-569.664 -296) translate(-1004.862 -292.483)"/>
    </g>
</svg>
