<svg xmlns="http://www.w3.org/2000/svg" width="24" height="24" viewBox="0 0 24 24">
    <g data-name="그룹 3150">
        <g data-name="그룹 3149">
            <path data-name="패스 1322" d="M191.175 131.818a.927.927 0 0 1-.691-.309l-1.145-1.283a.929.929 0 0 1 .066-1.3l6.21-5.719a.52.52 0 1 1 .7.765l-6.129 5.645.985 1.1 5.592-6.188a.52.52 0 0 1 .771.7l-5.677 6.282a.927.927 0 0 1-.682.307z" transform="translate(-177.899 -118.964)" style="fill:#999"/>
            <path data-name="패스 1323" d="M214.869 117.8a1.12 1.12 0 0 1-.8-.33l-.97-.97a1.127 1.127 0 0 1-.041-1.551l1.864-2.071a1.127 1.127 0 0 1 1.635-.043l1.177 1.177a1.127 1.127 0 0 1-.043 1.635l-2.071 1.864a1.125 1.125 0 0 1-.751.289zm.893-4.256a.086.086 0 0 0-.065.029l-1.864 2.071a.088.088 0 0 0 0 .121l.97.97a.088.088 0 0 0 .121 0L217 114.87a.088.088 0 0 0 0-.127l-1.177-1.177a.086.086 0 0 0-.06-.027z" transform="translate(-195.162 -111.308)" style="fill:#999"/>
            <path data-name="선 193" d="M.866 1.135a.311.311 0 0 1-.215-.086L-.2.238a.312.312 0 0 1 .426-.452L1.081.6a.312.312 0 0 1-.215.538z" transform="translate(17.638 2.918)" style="fill:#999"/>
            <path data-name="선 194" d="M.866 1.135a.311.311 0 0 1-.215-.086L-.2.238a.312.312 0 0 1 .426-.452L1.081.6a.312.312 0 0 1-.215.538z" transform="translate(18.45 2.106)" style="fill:#999"/>
            <path data-name="선 195" d="M.866 1.135a.311.311 0 0 1-.215-.086L-.2.238a.312.312 0 0 1 .426-.452L1.081.6a.312.312 0 0 1-.215.538z" transform="translate(19.262 1.294)" style="fill:#999"/>
            <path data-name="선 196" d="M.652 1.011a.311.311 0 0 1-.228-.1l-.64-.687A.312.312 0 1 1 .24-.2l.64.686a.312.312 0 0 1-.228.524z" transform="translate(20.246 5.748)" style="fill:#999"/>
            <path data-name="선 197" d="M.652 1.011a.311.311 0 0 1-.228-.1l-.64-.687A.312.312 0 1 1 .24-.2l.64.686a.312.312 0 0 1-.228.524z" transform="translate(21.057 4.937)" style="fill:#999"/>
            <path data-name="선 198" d="M.652 1.011a.311.311 0 0 1-.228-.1l-.64-.687A.312.312 0 1 1 .24-.2l.64.686a.312.312 0 0 1-.228.524z" transform="translate(22.14 4.125)" style="fill:#999"/>
            <path data-name="패스 1324" d="M158.639 151.042a6.138 6.138 0 0 1-.952-.078 7.373 7.373 0 0 1-3.861-1.92 8.55 8.55 0 0 1-2.521-3.709 4.929 4.929 0 0 1-.066-3.131 4.026 4.026 0 0 1 1.929-2.346 4.374 4.374 0 0 1 1.761-.5c1.093-.085 1.894-.382 2.091-.777l.095-.194c.4-.831 1.237-2.559 2.856-2.9a4.312 4.312 0 0 1 3.6 1.347.52.52 0 0 1-.678.788 3.385 3.385 0 0 0-2.712-1.117c-1.117.232-1.777 1.6-2.131 2.33l-.1.207c-.481.963-1.864 1.265-2.94 1.348a3.344 3.344 0 0 0-1.345.378 2.966 2.966 0 0 0-1.437 1.754 3.9 3.9 0 0 0 .061 2.475 7.463 7.463 0 0 0 2.191 3.236 6.261 6.261 0 0 0 3.327 1.693h.027a3.072 3.072 0 0 0 3.179-1.049A5.98 5.98 0 0 0 162 146.4a2.974 2.974 0 0 1 .646-1.321l.02-.024a4.223 4.223 0 0 1 1.318-.974 3.033 3.033 0 0 0 1.675-1.938 2.524 2.524 0 0 0-1.01-2.847.52.52 0 1 1 .579-.863 4.257 4.257 0 0 1 1.047 1.083 3.174 3.174 0 0 1 .353 3 4.023 4.023 0 0 1-2.154 2.484 3.24 3.24 0 0 0-1.015.731 1.933 1.933 0 0 0-.438.875 6.93 6.93 0 0 1-1.181 2.919 3.839 3.839 0 0 1-3.201 1.517z" transform="translate(-150.118 -128.036)" style="fill:#999"/>
            <path data-name="타원 244" d="M1.91-.4A2.31 2.31 0 1 1-.4 1.91 2.313 2.313 0 0 1 1.91-.4zm0 3.788A1.478 1.478 0 1 0 .432 1.91 1.48 1.48 0 0 0 1.91 3.388z" transform="translate(8.163 12.114)" style="fill:#999"/>
            <path data-name="사각형 2429" d="M.416 0h5.417a.416.416 0 0 1 .416.416v1.5a.416.416 0 0 1-.416.416H.416A.416.416 0 0 1 0 1.914V.416A.416.416 0 0 1 .416 0zm5 .832H.832V1.5h4.586z" transform="rotate(45 -13.97 13.85)" style="fill:#999"/>
        </g>
        <path data-name="사각형 2218" style="fill:none" d="M0 0h24v24H0z"/>
    </g>
</svg>
