<svg xmlns="http://www.w3.org/2000/svg" width="24" height="24" viewBox="0 0 24 24">
    <g data-name="그룹 3146">
        <g data-name="그룹 3145">
            <path data-name="빼기 3" d="M8.891 16.618a6.672 6.672 0 0 1-2.833-.718l1.972-.3.061-.09a4.277 4.277 0 0 0 .8.079 3.53 3.53 0 0 0 1.236-.223 4.873 4.873 0 0 0 3.46-3.529.016.016 0 0 0 .006-.009c.756-2.629-.3-6.712-.426-7.17V4.63a.216.216 0 0 1-.009-.05.018.018 0 0 0 0-.007v-.011c-.063-.308-.323-1.313-.965-1.313s-.668 1.245-.668 1.258V6.08a.712.712 0 0 1-.267.557l-.118-1.691-.646-.465c0-.784.367-2.265 1.7-2.265a1.866 1.866 0 0 1 1.662 1.173 4.088 4.088 0 0 1 .323 1c.131.478 1.273 4.752.417 7.718a5.853 5.853 0 0 1-4.1 4.22 4.519 4.519 0 0 1-1.605.291zM7.921 4.11l-1.5-1.559a.161.161 0 0 1-.017-.02v-.006l-.007-.007-.009-.007a.04.04 0 0 1-.015-.021 27.062 27.062 0 0 0-1.029-1.181.881.881 0 0 0-.662-.279.974.974 0 0 0-.7.3.979.979 0 0 0-.183.895l-.961-.965A1.779 1.779 0 0 1 3.246.6 2.013 2.013 0 0 1 4.682 0 1.946 1.946 0 0 1 6.1.605c.393.422.769.865 1.015 1.164l.05.055.017.022 1.263 1.317-.524.944zM0 1.858a1.721 1.721 0 0 1 .262-.345L.273 1.5a.209.209 0 0 0 .018-.024A1.8 1.8 0 0 1 1.4.943z" transform="translate(6.743 6.421)" style="fill:#999"/>
            <path data-name="패스 1322" d="M162.622 128.5a1.941 1.941 0 0 1 1.416.607c.514.55.992 1.134 1.081 1.243l3.3 3.439V133c0-.792.355-2.289 1.7-2.289a1.852 1.852 0 0 1 1.659 1.176 3.951 3.951 0 0 1 .323 1c.12.432 1.275 4.746.421 7.719a5.867 5.867 0 0 1-4.1 4.221 4.536 4.536 0 0 1-1.6.287 8.91 8.91 0 0 1-4.357-1.544l-.515-.3-.036-.022a32.085 32.085 0 0 1-4.835-4.036l-.027-.03a2.31 2.31 0 0 1-.366-2.632 2.225 2.225 0 0 1 .8-.7 2.51 2.51 0 0 1-.551-1.335 1.554 1.554 0 0 1 .377-1.263 1.784 1.784 0 0 1 .8-.611 1.992 1.992 0 0 1 .085-2.634l.031-.031a1.775 1.775 0 0 1 1.273-.547 2.341 2.341 0 0 1 1.245.4 1.734 1.734 0 0 1 .439-.742 2.014 2.014 0 0 1 1.437-.587zm6.118 6.795a.708.708 0 0 1-.514-.22l-3.866-4.024-.029-.033c-.005-.006-.515-.635-1.047-1.2a.893.893 0 0 0-.661-.279.987.987 0 0 0-.7.292 1.027 1.027 0 0 0-.171.948.517.517 0 0 1-.828.554l-.675-.583a1.385 1.385 0 0 0-.74-.276.733.733 0 0 0-.541.243l-.02.02a.958.958 0 0 0 .039 1.336l1.162 1.162a.517.517 0 0 1-.73.731 1.333 1.333 0 0 0-.773-.374.626.626 0 0 0-.517.319.522.522 0 0 1-.048.055.574.574 0 0 0-.106.467 1.519 1.519 0 0 0 .455.924l.537.537a.517.517 0 0 1-.529.855.617.617 0 0 0-.2-.034 1.02 1.02 0 0 0-.689.425c-.337.505.216 1.279.3 1.39a31.655 31.655 0 0 0 4.624 3.86c.162.09.335.191.517.3a8.1 8.1 0 0 0 3.837 1.4 3.507 3.507 0 0 0 1.236-.221 4.877 4.877 0 0 0 3.464-3.527v-.009c.8-2.78-.416-7.14-.429-7.184a.515.515 0 0 1-.014-.066c0-.012-.223-1.331-.966-1.331-.64 0-.665 1.245-.665 1.257v1.573a.717.717 0 0 1-.713.713z" transform="translate(-154.052 -122.081)" style="fill:#999"/>
            <path data-name="선 193" d="M4.743 5.26a.515.515 0 0 1-.365-.151L-.349.382a.517.517 0 0 1 .731-.731l4.727 4.727a.517.517 0 0 1-.365.882z" transform="translate(7.191 8.84)" style="fill:#999"/>
            <path data-name="선 194" d="M4.153 4.669a.515.515 0 0 1-.365-.151L-.349.382a.517.517 0 0 1 .731-.731l4.136 4.136a.517.517 0 0 1-.365.882z" transform="translate(5.714 11.5)" style="fill:#999"/>
            <path data-name="패스 1323" d="M3.562 3.783a.515.515 0 0 1-.349-.136L-.332.4a.517.517 0 0 1 .7-.762l3.545 3.25a.517.517 0 0 1-.349.9z" transform="translate(4.533 14.157)" style="fill:#999"/>
            <path data-name="합치기 48" d="m22361.965 18125.365-.859-1.539a.723.723 0 0 1 .281-.977.559.559 0 0 1 .119-.051.715.715 0 0 1 .848.332l.859 1.537a.734.734 0 0 1 .061.545.712.712 0 0 1-.342.432.827.827 0 0 1-.123.057.756.756 0 0 1-.215.033.721.721 0 0 1-.629-.369zm6.035.061a.548.548 0 0 1-.141-.033.694.694 0 0 1-.4-.359.679.679 0 0 1-.035-.551l.584-1.678a.723.723 0 0 1 .775-.473 1.318 1.318 0 0 1 .129.029l.012.006a.676.676 0 0 1 .4.363.717.717 0 0 1 .033.551l-.584 1.668a.715.715 0 0 1-.678.482.763.763 0 0 1-.095-.005zm-2.713-.123a.728.728 0 0 1-.617-.686l-.084-2.436a.715.715 0 0 1 .686-.742.5.5 0 0 1 .129.006.712.712 0 0 1 .617.686l.084 2.436a.715.715 0 0 1-.686.742 1.039 1.039 0 0 1-.129-.009z" transform="translate(-22354.488 -18120.479)" style="fill:#999"/>
        </g>
        <path data-name="사각형 2218" style="fill:none" d="M0 0h24v24H0z"/>
    </g>
</svg>
