<svg xmlns="http://www.w3.org/2000/svg" width="24" height="24" viewBox="0 0 24 24">
    <g data-name="그룹 3163">
        <g data-name="그룹 3162" transform="translate(-149.231 -113.827)">
            <ellipse data-name="타원 244" cx="3.673" cy=".82" rx="3.673" ry=".82" transform="rotate(-21.662 392.843 -372.051)" style="stroke-linejoin:round;stroke:#999;stroke-linecap:round;stroke-miterlimit:10;stroke-width:.6px;fill:none"/>
            <path data-name="패스 1329" d="m223.4 131.85-2.978-1.083-.771-1.386" transform="translate(-50.854 -10.362)" style="stroke-linejoin:round;stroke:#999;stroke-linecap:round;stroke-miterlimit:10;stroke-width:.6px;fill:none"/>
            <path data-name="선 193" transform="translate(167.945 116.885)" style="stroke:#999;stroke-linecap:round;stroke-miterlimit:10;stroke-width:.6px;fill:none" d="m0 0 .29.599"/>
            <path data-name="선 194" transform="translate(170.672 120.808)" style="stroke:#999;stroke-linecap:round;stroke-miterlimit:10;stroke-width:.6px;fill:none" d="M0 0v13.052"/>
            <path data-name="패스 1330" d="m219.651 175.515 1.875-1.966 1.875 1.966" transform="translate(-50.854 -42.571)" style="stroke-linejoin:round;stroke:#999;stroke-linecap:round;stroke-miterlimit:10;stroke-width:.6px;fill:none"/>
            <ellipse data-name="타원 245" cx=".894" cy="3.73" rx=".894" ry="3.73" transform="rotate(-66.027 164.835 -56.965)" style="stroke-linejoin:round;stroke:#999;stroke-linecap:round;stroke-miterlimit:10;stroke-width:.6px;fill:none"/>
            <path data-name="패스 1331" d="m149.992 130.074 2.978-1.2.771-1.534" transform="translate(-.057 -8.874)" style="stroke-linejoin:round;stroke:#999;stroke-linecap:round;stroke-miterlimit:10;stroke-width:.6px;fill:none"/>
            <path data-name="선 195" transform="translate(154.248 116.105)" style="stroke:#999;stroke-linecap:round;stroke-miterlimit:10;stroke-width:.6px;fill:none" d="M.29 0 0 .663"/>
            <path data-name="선 196" transform="translate(151.811 120.445)" style="stroke:#999;stroke-linecap:round;stroke-miterlimit:10;stroke-width:.6px;fill:none" d="M0 0v14.445"/>
            <path data-name="패스 1332" d="m153.742 178.4-1.875-2.176-1.875 2.176" transform="translate(-.057 -44.52)" style="stroke-linejoin:round;stroke:#999;stroke-linecap:round;stroke-miterlimit:10;stroke-width:.6px;fill:none"/>
            <g data-name="그룹 3159" transform="translate(161.162 119.944)">
                <rect data-name="사각형 2433" width="4.186" height="1.155" rx=".577" transform="rotate(-21.662 4.038 .772)" style="stroke-linejoin:round;stroke:#999;stroke-linecap:round;stroke-miterlimit:10;stroke-width:.6px;fill:none"/>
                <rect data-name="사각형 2434" width="4.186" height="1.155" rx=".577" transform="rotate(-21.662 12.362 -.569)" style="stroke-linejoin:round;stroke:#999;stroke-linecap:round;stroke-miterlimit:10;stroke-width:.6px;fill:none"/>
                <path data-name="선 197" transform="translate(.925 2.42)" style="stroke:#999;stroke-linecap:round;stroke-miterlimit:10;stroke-width:.6px;fill:none" d="m0 0 .752 1.867"/>
                <path data-name="선 198" transform="translate(3.632 1.337)" style="stroke:#999;stroke-linecap:round;stroke-miterlimit:10;stroke-width:.6px;fill:none" d="m0 0 .752 1.867"/>
            </g>
            <g data-name="그룹 3160" transform="translate(155.476 119.944)">
                <rect data-name="사각형 2435" width="4.186" height="1.155" rx=".577" transform="rotate(-158.338 2.737 .833)" style="stroke-linejoin:round;stroke:#999;stroke-linecap:round;stroke-miterlimit:10;stroke-width:.6px;fill:none"/>
                <rect data-name="사각형 2436" width="4.186" height="1.155" rx=".577" transform="rotate(-158.338 2.48 2.426)" style="stroke-linejoin:round;stroke:#999;stroke-linecap:round;stroke-miterlimit:10;stroke-width:.6px;fill:none"/>
                <path data-name="선 199" transform="translate(3.722 2.42)" style="stroke:#999;stroke-linecap:round;stroke-miterlimit:10;stroke-width:.6px;fill:none" d="M.752 0 0 1.867"/>
                <path data-name="선 200" transform="translate(1.015 1.337)" style="stroke:#999;stroke-linecap:round;stroke-miterlimit:10;stroke-width:.6px;fill:none" d="M.752 0 0 1.867"/>
            </g>
            <circle data-name="타원 246" cx="3.791" cy="3.791" transform="translate(157.113 127.445)" style="stroke-linejoin:round;stroke:#999;stroke-linecap:round;stroke-miterlimit:10;stroke-width:.6px;fill:none" r="3.791"/>
            <circle data-name="타원 247" cx="4.874" cy="4.874" transform="translate(156.03 126.362)" style="stroke-linejoin:round;stroke:#999;stroke-linecap:round;stroke-miterlimit:10;stroke-width:.6px;fill:none" r="4.874"/>
            <path data-name="선 201" transform="translate(163.967 135.027)" style="stroke:#999;stroke-linecap:round;stroke-miterlimit:10;stroke-width:.6px;fill:none" d="M1.205 1.465 0 0"/>
            <path data-name="선 202" transform="translate(156.655 135.027)" style="stroke:#999;stroke-linecap:round;stroke-miterlimit:10;stroke-width:.6px;fill:none" d="M0 1.465 1.205 0"/>
            <path data-name="선 203" transform="translate(158.344 125.822)" style="stroke:#999;stroke-linecap:round;stroke-miterlimit:10;stroke-width:.6px;fill:none" d="M.123 0 0 1.267"/>
            <path data-name="선 204" transform="translate(153.322 125.143)" style="stroke:#999;stroke-linecap:round;stroke-miterlimit:10;stroke-width:.6px;fill:none" d="M.271 0 0 3.384"/>
            <path data-name="패스 1333" d="m163.526 165.086-3.624-.469a.245.245 0 0 0-.276.225l-.064.86a.245.245 0 0 0 .217.262l3.286.376" transform="translate(-7.035 -36.056)" style="stroke-linejoin:round;stroke:#999;stroke-linecap:round;stroke-miterlimit:10;stroke-width:.6px;fill:none"/>
            <path data-name="패스 1334" d="M167.317 172.084h-1.774v-1.892" transform="translate(-11.397 -40.123)" style="stroke-linejoin:round;stroke:#999;stroke-linecap:round;stroke-miterlimit:10;stroke-width:.6px;fill:none"/>
            <path data-name="패스 1335" d="M167.9 148.581v.386l-5.561-.758a.268.268 0 0 1-.231-.289l.081-.921a.268.268 0 0 1 .305-.242l1.874.269" transform="translate(-8.89 -23.03)" style="stroke-linejoin:round;stroke:#999;stroke-linecap:round;stroke-miterlimit:10;stroke-width:.6px;fill:none"/>
            <path data-name="선 205" transform="translate(159.383 123.777)" style="stroke:#999;stroke-linecap:round;stroke-miterlimit:10;stroke-width:.6px;fill:none" d="M0 0h3.229"/>
            <path data-name="선 206" transform="translate(161.174 123.777)" style="stroke:#999;stroke-linecap:round;stroke-miterlimit:10;stroke-width:.6px;fill:none" d="M0 2.585V0"/>
            <rect data-name="사각형 2437" width="6.228" height="1.354" rx=".677" transform="translate(163.342 125.55)" style="stroke-linejoin:round;stroke:#999;stroke-linecap:round;stroke-miterlimit:10;stroke-width:.6px;fill:none"/>
            <path data-name="패스 1336" d="M206.4 166.045h4.04a.321.321 0 0 1 .321.321v.6a.321.321 0 0 1-.321.321h-3.584" transform="translate(-41.188 -37.098)" style="stroke-linejoin:round;stroke:#999;stroke-linecap:round;stroke-miterlimit:10;stroke-width:.6px;fill:none"/>
            <path data-name="선 207" transform="translate(168.928 126.904)" style="stroke:#999;stroke-linecap:round;stroke-miterlimit:10;stroke-width:.6px;fill:none" d="M0 0v2.043"/>
            <path data-name="패스 1337" d="M209.867 170.629v1.232l-2.216 1.392" transform="translate(-42.103 -40.44)" style="stroke-linejoin:round;stroke:#999;stroke-linecap:round;stroke-miterlimit:10;stroke-width:.6px;fill:none"/>
        </g>
        <path data-name="사각형 2218" style="fill:none" d="M0 0h24v24H0z"/>
    </g>
</svg>
