<svg xmlns="http://www.w3.org/2000/svg" width="24" height="24" viewBox="0 0 24 24">
    <g data-name="그룹 3153">
        <g data-name="그룹 3152">
            <path data-name="패스 1322" d="M187.134 125.63a1.149 1.149 0 0 1-.818-.339l-.92-.92a1.156 1.156 0 0 1 .018-1.653l11.625-11.118a.625.625 0 0 1 1.038.3l.345 1.38a1.845 1.845 0 0 1-.217 1.405l-1.574 2.557a1.667 1.667 0 0 1-1.089.759l-.684.137-6.893 7.139a1.146 1.146 0 0 1-.831.353zm10.129-12.86-11.157 10.672a.156.156 0 0 0 0 .223l.92.92a.153.153 0 0 0 .11.046.155.155 0 0 0 .112-.047l7-7.251a.5.5 0 0 1 .262-.143l.837-.167a.664.664 0 0 0 .434-.3l1.573-2.557a.839.839 0 0 0 .1-.639z" transform="translate(-175.329 -111.151)" style="fill:#999"/>
            <path data-name="선 193" d="M1.53 1.966a.5.5 0 0 1-.346-.139L-.346.361a.5.5 0 0 1-.015-.707.5.5 0 0 1 .707-.015l1.53 1.466a.5.5 0 0 1-.346.861z" transform="translate(17.748 5.062)" style="fill:#999"/>
            <path data-name="선 194" d="M.674.942A.3.3 0 0 1 .467.859L-.207.217a.3.3 0 0 1-.01-.424.3.3 0 0 1 .424-.01l.674.642a.3.3 0 0 1-.207.517z" transform="translate(20.7 .663)" style="fill:#999"/>
            <path data-name="선 195" d="M.674.942A.3.3 0 0 1 .467.859L-.207.217a.3.3 0 0 1-.01-.424.3.3 0 0 1 .424-.01l.674.642a.3.3 0 0 1-.207.517z" transform="translate(20.066 1.29)" style="fill:#999"/>
            <path data-name="선 196" d="M.674.942A.3.3 0 0 1 .467.859L-.207.217a.3.3 0 0 1-.01-.424.3.3 0 0 1 .424-.01l.674.642a.3.3 0 0 1-.207.517z" transform="translate(19.433 1.917)" style="fill:#999"/>
            <path data-name="선 197" d="M.674.942A.3.3 0 0 1 .467.859L-.207.217a.3.3 0 0 1-.01-.424.3.3 0 0 1 .424-.01l.674.642a.3.3 0 0 1-.207.517z" transform="translate(18.672 2.67)" style="fill:#999"/>
            <path data-name="선 198" d="M.674.942A.3.3 0 0 1 .467.859L-.207.217a.3.3 0 0 1-.01-.424.3.3 0 0 1 .424-.01l.674.642a.3.3 0 0 1-.207.517z" transform="translate(17.912 3.422)" style="fill:#999"/>
            <path data-name="선 199" d="M.674.942A.3.3 0 0 1 .467.859L-.207.217a.3.3 0 0 1-.01-.424.3.3 0 0 1 .424-.01l.674.642a.3.3 0 0 1-.207.517z" transform="translate(17.278 4.049)" style="fill:#999"/>
            <path data-name="패스 1323" d="M159.306 151.175q-.172 0-.354-.014a7.951 7.951 0 0 1-4.791-2.18 7.292 7.292 0 0 1-2.329-4.374 4.358 4.358 0 0 1 1.5-4.24 9.609 9.609 0 0 1 3.944-1.787 2.374 2.374 0 0 0 1.994-2.028 3.7 3.7 0 0 1 1.065-2.186 2.9 2.9 0 0 1 2.969-.725 1.012 1.012 0 0 1 .661.634 1.044 1.044 0 0 1-.114.926l-.442.664a.7.7 0 0 0-.1.547.658.658 0 0 0 .313.426l.016.009a.5.5 0 0 1-.465.885l-.048-.027a1.649 1.649 0 0 1-.789-1.065 1.7 1.7 0 0 1 .241-1.33l.442-.664a.038.038 0 0 0 0-.035c0-.011-.009-.013-.013-.014a1.892 1.892 0 0 0-1.982.489 2.745 2.745 0 0 0-.769 1.6 3.348 3.348 0 0 1-2.742 2.859 8.674 8.674 0 0 0-3.539 1.579 3.373 3.373 0 0 0-1.164 3.325 6.289 6.289 0 0 0 2.043 3.814 7.012 7.012 0 0 0 4.166 1.895c2.188.168 3.033-1.793 3.343-2.977a5.3 5.3 0 0 0 .134-.78 3.113 3.113 0 0 1 2.828-2.906c1.637-.182 1.905-1.026 1.948-1.32a.523.523 0 0 0-.247-.3.967.967 0 0 0-.731.09 2.626 2.626 0 0 1-1.1.212 1.643 1.643 0 0 1-1.229-.526 1.945 1.945 0 0 1-.368-1.54.5.5 0 1 1 .994.108 1.1 1.1 0 0 0 .13.776.678.678 0 0 0 .507.181 1.62 1.62 0 0 0 .681-.133 1.87 1.87 0 0 1 1.538-.078 1.542 1.542 0 0 1 .792.93.871.871 0 0 1 .035.373 2.217 2.217 0 0 1-.558 1.2 3.444 3.444 0 0 1-2.276 1.017 2.023 2.023 0 0 0-1.547.874 2.636 2.636 0 0 0-.4 1.145 6.263 6.263 0 0 1-.161.926c-.293 1.158-1.275 3.745-4.026 3.745z" transform="translate(-150.91 -127.339)" style="fill:#999"/>
            <path data-name="선 200" d="M3.2 3.5a.3.3 0 0 1-.212-.088l-3.2-3.2a.3.3 0 0 1 0-.424.3.3 0 0 1 .424 0l3.2 3.2A.3.3 0 0 1 3.2 3.5z" transform="translate(7.513 13.981)" style="fill:#999"/>
            <path data-name="선 201" d="M3.2 3.5a.3.3 0 0 1-.212-.088l-3.2-3.2a.3.3 0 0 1 0-.424.3.3 0 0 1 .424 0l3.2 3.2A.3.3 0 0 1 3.2 3.5z" transform="translate(6.512 14.709)" style="fill:#999"/>
            <path data-name="사각형 2429" d="M0-.4h3.714a.4.4 0 0 1 .4.4v1.6a.4.4 0 0 1-.4.4H0a.4.4 0 0 1-.4-.4V0A.4.4 0 0 1 0-.4zm3.314.8H.4v.8h2.914z" transform="rotate(45 -16.942 14.776)" style="fill:#999"/>
        </g>
        <path data-name="사각형 2218" style="fill:none" d="M0 0h24v24H0z"/>
    </g>
</svg>
