<svg xmlns="http://www.w3.org/2000/svg" width="24.001" height="24" viewBox="0 0 24.001 24">
    <g data-name="그룹 3144">
        <path data-name="사각형 2218" style="fill:none" d="M0 0h24v24H0z" transform="translate(.001)"/>
        <g data-name="그룹 3143">
            <path data-name="합치기 44" d="M14.029 17.149h-.005c-.04-.044-1.225-1.363-2.605-2.831l.563-.7c1.451 1.543 2.7 2.932 2.709 2.941l.009.006a1.648 1.648 0 0 0 1.076.559 1.159 1.159 0 0 0 .768-.33.875.875 0 0 0 .229-.649 2.025 2.025 0 0 0-.761-1.269c-.319-.28-1.21-1.1-2.889-2.664l.561-.692a191.873 191.873 0 0 0 2.914 2.686 2.807 2.807 0 0 1 1.06 1.885 1.758 1.758 0 0 1-.464 1.31l-.038.037a2.028 2.028 0 0 1-1.379.571 2.522 2.522 0 0 1-1.748-.86zM9.6 12.418c-.464-.469-.8-.8-1.084-1.063a5.039 5.039 0 0 0-2.953-.906h-.066a6.155 6.155 0 0 1-2.532-.608A6.742 6.742 0 0 1 1.881 9.1a.449.449 0 0 1-.045-.039 5.13 5.13 0 0 1-1.8-3.364A6.019 6.019 0 0 1 .257 3.3v-.008a5.136 5.136 0 0 1 .99-1.624A4.885 4.885 0 0 1 4.937 0h.084a4.485 4.485 0 0 1 3.862 2.19 9.14 9.14 0 0 1 1.326 4.027l.006.022a4.584 4.584 0 0 0 .89 2.879h.012l.624.582-.551.7-.676-.633a5.183 5.183 0 0 1-1.188-3.472A9.422 9.422 0 0 0 9 4.586H7.152v2.142a.443.443 0 0 1-.437.444H4.371v2.236a10.251 10.251 0 0 0 1.2.153l.055.005a5.9 5.9 0 0 1 3.451 1.1l.018.012.015.016c.293.273.635.608 1.048 1.023l-.555.7zM1.938 2.237A4.355 4.355 0 0 0 1.1 3.584v.006a4.971 4.971 0 0 0-.174 2.039 4.151 4.151 0 0 0 .777 2v-2.67a.446.446 0 0 1 .449-.444H4.49V2.372a.443.443 0 0 1 .444-.444h2.6A3.43 3.43 0 0 0 5.021.888h-.074a3.979 3.979 0 0 0-3.009 1.349z" transform="rotate(4.01 -33.645 19.107)" style="fill:#999"/>
            <path data-name="합치기 46" d="M4.937 18a4.895 4.895 0 0 1-3.687-1.666 5.218 5.218 0 0 1-.99-1.627 5.876 5.876 0 0 1-.223-2.394A5.124 5.124 0 0 1 1.82 8.96a.445.445 0 0 1 .09-.076 6.735 6.735 0 0 1 1.054-.716 6.187 6.187 0 0 1 2.582-.61 5.114 5.114 0 0 0 2.971-.906C10.426 4.854 13.91.99 14.026.861A2.556 2.556 0 0 1 15.777 0a2.043 2.043 0 0 1 1.379.569l.036.037a1.771 1.771 0 0 1 .466 1.31A2.821 2.821 0 0 1 16.6 3.8c-.834.728-5.436 5.039-5.481 5.082l-.008.006a4.448 4.448 0 0 0-.9 2.877v.021a9.184 9.184 0 0 1-1.326 4.029A4.5 4.5 0 0 1 5.019 18zM.923 12.379a5.083 5.083 0 0 0 .177 2.039 4.422 4.422 0 0 0 .836 1.35 3.98 3.98 0 0 0 3.011 1.344h.07a3.439 3.439 0 0 0 2.517-1.04h-2.6a.447.447 0 0 1-.449-.443v-2.142h-2.33a.447.447 0 0 1-.449-.444v-2.668a4.167 4.167 0 0 0-.783 2.004zm3.444-1.549h2.342a.445.445 0 0 1 .444.444v2.143H9a9.349 9.349 0 0 0 .328-1.707 5.071 5.071 0 0 1 1.186-3.475c.187-.177 4.656-4.363 5.5-5.1a2 2 0 0 0 .76-1.268.856.856 0 0 0-.229-.65 1.147 1.147 0 0 0-.766-.328 1.681 1.681 0 0 0-1.08.554l-.007.01c-.035.041-3.625 4.024-5.58 5.863l-.018.014-.015.013a5.965 5.965 0 0 1-3.455 1.1 10.274 10.274 0 0 0-1.257.157z" transform="matrix(-.998 .07 -.07 -.998 23.875 20.365)" style="fill:#999"/>
        </g>
    </g>
</svg>
