<svg xmlns="http://www.w3.org/2000/svg" width="24" height="24" viewBox="0 0 24 24">
    <g data-name="그룹 3158">
        <g data-name="그룹 3157">
            <path data-name="패스 1329" d="M186.965 121.915a.754.754 0 0 1-.536-.222l-.983-.983a.758.758 0 0 1 .017-1.089l7.986-7.5 1.717-2.36a.791.791 0 0 1 1.2-.094l1.11 1.11a.791.791 0 0 1-.094 1.2l-2.36 1.717-7.5 7.986a.761.761 0 0 1-.557.235zm-.923-1.74.922.922 7.5-7.982a.4.4 0 0 1 .056-.05l2.382-1.733-1.095-1.095-1.733 2.382a.4.4 0 0 1-.05.056z" transform="translate(-174.641 -108.285)" style="fill:#999"/>
            <path data-name="선 193" d="M0 1.179a.3.3 0 0 1-.217-.093.3.3 0 0 1 .01-.425l.923-.878a.3.3 0 0 1 .424.01.3.3 0 0 1-.01.424L.207 1.1A.3.3 0 0 1 0 1.179z" transform="translate(18.733 1.339)" style="fill:#999"/>
            <path data-name="선 194" d="M.958 1.188a.3.3 0 0 1-.2-.08L-.2.22A.3.3 0 0 1-.22-.2.3.3 0 0 1 .2-.22l.958.888a.3.3 0 0 1-.2.52z" transform="translate(19.194 1.778)" style="fill:#999"/>
            <path data-name="선 195" d="M0 1.107A.3.3 0 0 1-.232 1 .3.3 0 0 1-.19.575L.8-.232a.3.3 0 0 1 .422.042.3.3 0 0 1-.042.422l-.99.807a.3.3 0 0 1-.19.068z" transform="translate(21.942 4.602)" style="fill:#999"/>
            <path data-name="선 196" d="M.889 1.257a.3.3 0 0 1-.22-.1L-.22.2A.3.3 0 0 1-.2-.22a.3.3 0 0 1 .42.02l.889.957a.3.3 0 0 1-.22.5z" transform="translate(21.546 4.049)" style="fill:#999"/>
            <path data-name="패스 1330" d="M152.943 150.081q-.168 0-.334-.011a5.408 5.408 0 0 1-3.463-1.631 8.511 8.511 0 0 1-1.7-1.925 5.833 5.833 0 0 1-.348-5.605c.045-.084.1-.17.15-.256a3.04 3.04 0 0 1 1.693-1.267c.345-.107.375-.279.387-.344a1.17 1.17 0 0 1 .533-.81.765.765 0 0 1 .668-.08.931.931 0 0 1 .534.633.5.5 0 0 1 .029.155l.038-.009h.018a3.169 3.169 0 0 0 2.3-1.826.113.113 0 0 0 0-.115.091.091 0 0 0-.081-.051h-.021a.5.5 0 0 1-.348-.146 1 1 0 0 1-.289-.889.988.988 0 0 1 .735-.692.463.463 0 0 1 .277-.011.541.541 0 0 0 .577-.2 2.88 2.88 0 0 1 .868-.984 3.569 3.569 0 0 1 2.109-.579 5.188 5.188 0 0 1 3.022 1.217.5.5 0 1 1-.615.788c-2.082-1.626-3.555-.868-3.956-.6a1.893 1.893 0 0 0-.561.655 1.409 1.409 0 0 1-1.089.7 1.118 1.118 0 0 1 .241.293 1.106 1.106 0 0 1 0 1.107 4.143 4.143 0 0 1-2.916 2.3h-.018a1.037 1.037 0 0 1-1.059-.182.782.782 0 0 1-.121-.154 1.51 1.51 0 0 1-.967.779 2.041 2.041 0 0 0-1.141.842c-.043.069-.083.138-.12.2a4.849 4.849 0 0 0 .312 4.588 7.542 7.542 0 0 0 1.5 1.7.511.511 0 0 1 .046.041 4.243 4.243 0 0 0 5.181.841 3.236 3.236 0 0 0 1.222-1.365 1.6 1.6 0 0 1 .779-.717.7.7 0 0 1-.313-.214.59.59 0 0 1-.094-.161 1.7 1.7 0 0 1 .113-1.738 5.894 5.894 0 0 1 1.514-1.717c.589-.471 1.048-.637 1.444-.521a.807.807 0 0 1 .429.3 1.6 1.6 0 0 1 .738-.884 2.575 2.575 0 0 0 1.086-1.267 3.629 3.629 0 0 0-.791-3.324.5.5 0 0 1 .737-.675 4.574 4.574 0 0 1 1 4.336 3.526 3.526 0 0 1-1.5 1.777c-.147.092-.322.236-.322.4a1.113 1.113 0 0 1-.413.923.741.741 0 0 1-.741.021 1.174 1.174 0 0 1-.564-.611 2.1 2.1 0 0 0-.478.308c-1.147.918-1.54 1.781-1.413 2.119h.1a.863.863 0 0 1 .916.86.936.936 0 0 1-.784.906.739.739 0 0 0-.553.342 4.21 4.21 0 0 1-1.615 1.771 5.307 5.307 0 0 1-2.568.659z" transform="translate(-145.806 -126.521)" style="fill:#999"/>
            <path data-name="선 197" d="M0 4.463a.3.3 0 0 1-.211-.087.3.3 0 0 1 0-.424L3.907-.211a.3.3 0 0 1 .424 0 .3.3 0 0 1 0 .424L.213 4.374A.3.3 0 0 1 0 4.463z" transform="translate(7.438 12.613)" style="fill:#999"/>
            <path data-name="패스 1331" d="M153.414 174a.5.5 0 0 1-.332-.874l4.122-3.664-.759-.759-3.694 4.095a.5.5 0 0 1-.743-.67l3.794-4.206a.858.858 0 0 1 1.244-.032l.971.971a.859.859 0 0 1-.036 1.248l-4.234 3.764a.5.5 0 0 1-.333.127z" transform="translate(-149.741 -151.96)" style="fill:#999"/>
            <path data-name="선 198" d="M1.506 1.806a.3.3 0 0 1-.212-.088L-.212.212a.3.3 0 0 1 0-.424.3.3 0 0 1 .424 0l1.506 1.506a.3.3 0 0 1-.212.512z" transform="translate(8.944 13.764)" style="fill:#999"/>
            <path data-name="패스 1332" d="M178.852 171.627a.6.6 0 0 1-.26-.058.8.8 0 0 1-.391-.644.3.3 0 0 1 .055-.2l1.193-1.671a.2.2 0 0 0-.018-.064.55.55 0 0 0-.287.074.3.3 0 0 1-.286-.527.969.969 0 0 1 .882-.062.709.709 0 0 1 .314.667.3.3 0 0 1-.056.174l-1.179 1.65a.175.175 0 0 0 .029.056.5.5 0 0 0 .26-.119.3.3 0 0 1 .342.493 1.083 1.083 0 0 1-.598.231z" transform="translate(-169.305 -152.37)" style="fill:#999"/>
            <path data-name="패스 1333" d="M163.176 159.995h-.022a.8.8 0 0 1-.644-.391.848.848 0 0 1 .168-.86.3.3 0 0 1 .493.341.5.5 0 0 0-.119.26.174.174 0 0 0 .056.029l1.65-1.178a.3.3 0 0 1 .174-.056.709.709 0 0 1 .667.314.969.969 0 0 1-.062.882.3.3 0 0 1-.527-.287.551.551 0 0 0 .074-.286.2.2 0 0 0-.064-.018l-1.671 1.193a.3.3 0 0 1-.173.057z" transform="translate(-157.51 -144.692)" style="fill:#999"/>
        </g>
        <path data-name="사각형 2218" style="fill:none" d="M0 0h24v24H0z"/>
    </g>
</svg>
