<svg xmlns="http://www.w3.org/2000/svg" width="24" height="24" viewBox="0 0 24 24">
    <g data-name="그룹 3148">
        <path data-name="사각형 2218" style="fill:none" d="M0 0h24v24H0z"/>
        <g data-name="그룹 3147">
            <path data-name="패스 1322" d="M174.792 155.093h-.3a7.228 7.228 0 0 1-5.707-2.415c-2.208-2.7-1.555-6.608-1.526-6.773a.485.485 0 0 1 .956.167c-.006.036-.6 3.648 1.324 6a6.312 6.312 0 0 0 4.978 2.055 5.906 5.906 0 0 0 4.859-1.766c2.028-2.335 1.4-6.248 1.394-6.288a.485.485 0 0 1 .957-.162c.03.178.713 4.4-1.615 7.081a6.689 6.689 0 0 1-5.32 2.101z" transform="translate(-162.498 -135.689)" style="fill:#999"/>
            <path data-name="선 193" d="M-.015 3.939A.485.485 0 0 1-.5 3.452l.01-3.468A.485.485 0 0 1 0-.5a.485.485 0 0 1 .48.486L.47 3.455a.485.485 0 0 1-.485.484z" transform="translate(12.015 18.931)" style="fill:#999"/>
            <path data-name="선 194" d="M7.41.47H-.015A.485.485 0 0 1-.5-.015.485.485 0 0 1-.015-.5H7.41a.485.485 0 0 1 .49.485.485.485 0 0 1-.49.485z" transform="translate(8.364 22.399)" style="fill:#999"/>
            <path data-name="사각형 2429" d="M4.252-.5A4.757 4.757 0 0 1 9 4.252v6.179a4.752 4.752 0 1 1-9.5 0V4.252A4.757 4.757 0 0 1 4.252-.5zm0 14.712a3.786 3.786 0 0 0 3.781-3.781V4.252a3.781 3.781 0 0 0-7.563 0v6.179a3.786 3.786 0 0 0 3.782 3.781z" transform="translate(7.759 1.631)" style="fill:#999"/>
            <path data-name="합치기 47" d="M21921.479 17565.416a.683.683 0 1 1 0-1.365h2.322a.683.683 0 1 1 0 1.365zm-5.3 0a.683.683 0 0 1 0-1.365h2.328a.683.683 0 0 1 0 1.365zm5.3-2.943a.683.683 0 1 1 0-1.365h2.322a.683.683 0 1 1 0 1.365zm-5.3 0a.683.683 0 0 1 0-1.365h2.328a.683.683 0 0 1 0 1.365zm5.3-3.236a.685.685 0 1 1 0-1.369h2.322a.685.685 0 1 1 0 1.369zm-5.3 0a.685.685 0 0 1 0-1.369h2.328a.685.685 0 0 1 0 1.369z" transform="translate(-21908.029 -17552.818)" style="fill:#999"/>
        </g>
    </g>
</svg>
