<svg xmlns="http://www.w3.org/2000/svg" width="24" height="24" viewBox="0 0 24 24">
    <path data-name="패스 1229" d="M0 0h24v24H0z" style="fill:none"/>
    <path data-name="패스 1230" d="M5.889 17.222A1.783 1.783 0 0 0 7.667 19h7.111a1.783 1.783 0 0 0 1.778-1.778V8.333a1.783 1.783 0 0 0-1.778-1.778H7.667a1.783 1.783 0 0 0-1.778 1.778zM16.556 3.889h-2.223l-.633-.631A.9.9 0 0 0 13.08 3H9.364a.9.9 0 0 0-.622.258l-.631.631H5.889a.889.889 0 1 0 0 1.778h10.667a.889.889 0 1 0 0-1.778z" transform="translate(1 1)" style="fill:#fff"/>
</svg>
