<svg xmlns="http://www.w3.org/2000/svg" width="24" height="24" viewBox="0 0 24 24">
    <g data-name="그룹 3562">
        <g data-name="그룹 3149">
            <path data-name="합치기 64" d="M21947.791 23553.145a7.38 7.38 0 0 1-3.861-1.92 8.546 8.546 0 0 1-2.523-3.707 4.939 4.939 0 0 1-.064-3.133 4.017 4.017 0 0 1 1.932-2.346 4.345 4.345 0 0 1 1.756-.5c1.094-.082 1.9-.383 2.094-.773.029-.059.059-.125.094-.2.4-.834 1.234-2.561 2.855-2.9a4.009 4.009 0 0 1 3.234 1.049l4.521-4.168a1.114 1.114 0 0 1 .289-.7l.02-.021-.48-.457a.314.314 0 0 1-.012-.443.307.307 0 0 1 .438-.012l.473.447.352-.391-.441-.418a.311.311 0 1 1 .432-.449l.426.4.352-.389-.4-.377a.314.314 0 1 1 .432-.455l.393.375a1.123 1.123 0 0 1 1.516.068l1.178 1.178a1.139 1.139 0 0 1 .33.826 1.123 1.123 0 0 1-.258.691l.371.4a.312.312 0 0 1-.012.443.327.327 0 0 1-.443-.018l-.371-.4-.535.482.279.3a.313.313 0 0 1-.018.443.308.308 0 0 1-.207.082.316.316 0 0 1-.23-.1l-.287-.309-.389.35.32.342a.315.315 0 0 1-.225.527.322.322 0 0 1-.23-.1l-.336-.365a1.137 1.137 0 0 1-.627.189 1.092 1.092 0 0 1-.24-.027l-3.9 4.316a4.411 4.411 0 0 1 .594.705 3.193 3.193 0 0 1 .355 3 4.022 4.022 0 0 1-2.158 2.479 3.254 3.254 0 0 0-1.018.732 1.952 1.952 0 0 0-.437.875 6.928 6.928 0 0 1-1.182 2.92 3.837 3.837 0 0 1-3.2 1.52 6.83 6.83 0 0 1-.952-.061zm2.494-14.457c-1.117.23-1.779 1.6-2.135 2.328a6.07 6.07 0 0 1-.1.207c-.479.963-1.863 1.266-2.937 1.348a3.452 3.452 0 0 0-1.348.379 2.972 2.972 0 0 0-1.437 1.754 3.929 3.929 0 0 0 .064 2.479 7.416 7.416 0 0 0 2.188 3.232l.006.006a6.227 6.227 0 0 0 3.328 1.691.035.035 0 0 1 .023.006 3.071 3.071 0 0 0 3.18-1.053 5.937 5.937 0 0 0 .988-2.482 2.939 2.939 0 0 1 .645-1.324c.006-.006.012-.018.018-.023a4.223 4.223 0 0 1 1.318-.977 3.02 3.02 0 0 0 1.678-1.937 2.338 2.338 0 0 0-.676-2.561l-.908 1.006a.932.932 0 0 1-1.377-.006l-1.141-1.283a.928.928 0 0 1 .064-1.3l.807-.742a3.342 3.342 0 0 0-1.908-.781 1.631 1.631 0 0 0-.34.033zm2.223 2.18.986 1.105 5.334-5.9-.533-.533-4.541 4.182a.119.119 0 0 1-.023.031.569.569 0 0 1-.123.105zm8.246-8.393-1.863 2.068a.093.093 0 0 0 .006.125l.965.969a.081.081 0 0 0 .064.023.084.084 0 0 0 .059-.018l2.068-1.867a.074.074 0 0 0 .031-.061.091.091 0 0 0-.025-.064l-1.176-1.182a.109.109 0 0 0-.064-.023.09.09 0 0 0-.065.03zm-12.355 17.449-3.83-3.83a.414.414 0 0 1 0-.592l1.059-1.059a.415.415 0 0 1 .59 0l3.826 3.83a.417.417 0 0 1 0 .592l-1.059 1.059a.42.42 0 0 1-.586 0zm-2.949-4.127 3.24 3.246.473-.473-3.24-3.246zm2.535-1.561a2.309 2.309 0 1 1 2.307 2.313 2.314 2.314 0 0 1-2.308-2.313zm.828 0a1.48 1.48 0 1 0 1.479-1.477 1.482 1.482 0 0 0-1.479 1.477z" transform="translate(-21940.22 -23530.214)" style="fill:#fff"/>
        </g>
        <path data-name="사각형 2218" style="fill:none" d="M0 0h24v24H0z"/>
    </g>
</svg>
