<svg xmlns="http://www.w3.org/2000/svg" width="24" height="24" viewBox="0 0 24 24">
    <g data-name="그룹 3555">
        <g data-name="그룹 3145">
            <path data-name="합치기 58" d="M22269.393 24114.66a4.61 4.61 0 0 1-1.379.211 8.888 8.888 0 0 1-4.357-1.543 18.422 18.422 0 0 0-.514-.3.108.108 0 0 1-.037-.023 31.782 31.782 0 0 1-4.836-4.037.3.3 0 0 1-.023-.025 2.311 2.311 0 0 1-.369-2.631 2.218 2.218 0 0 1 .8-.709 2.494 2.494 0 0 1-.551-1.332 1.544 1.544 0 0 1 .375-1.264 1.8 1.8 0 0 1 .8-.611 1.987 1.987 0 0 1 .084-2.633c.006-.012.02-.018.031-.031a1.783 1.783 0 0 1 1.271-.545 2.346 2.346 0 0 1 1.246.4 1.732 1.732 0 0 1 .436-.744 2.037 2.037 0 0 1 1.434-.594 1.938 1.938 0 0 1 1.414.6 2.026 2.026 0 0 1 1.441-.6 1.964 1.964 0 0 1 1.416.605c.393.424.77.865 1.012 1.168a.228.228 0 0 1 .053.055l.014.018.945.982a1.422 1.422 0 0 1 1.2-.613 1.744 1.744 0 0 1 1.488.877 1.493 1.493 0 0 1 1.367-.877 1.881 1.881 0 0 1 1.664 1.174 4.188 4.188 0 0 1 .322 1.006c.127.471 1.27 4.75.416 7.717a5.857 5.857 0 0 1-4.1 4.217 4.494 4.494 0 0 1-1.6.291 5.581 5.581 0 0 1-1.463-.209zm-10.656-7.771c-.34.5.217 1.277.3 1.387a31.223 31.223 0 0 0 4.629 3.859c.158.092.332.2.514.3a8.092 8.092 0 0 0 3.838 1.4 3.547 3.547 0 0 0 1.234-.217 4.864 4.864 0 0 0 3.463-3.529.006.006 0 0 0 .006-.006c.8-2.783-.418-7.141-.43-7.184a.494.494 0 0 0-.014-.066c0-.012-.223-1.332-.967-1.332-.637 0-.666 1.246-.666 1.254v1.578a.715.715 0 0 1-.715.715.691.691 0 0 1-.514-.225l-3.867-4.023c-.012-.014-.02-.02-.031-.031s-.514-.635-1.047-1.2a.872.872 0 0 0-.66-.279.984.984 0 0 0-.7.291.945.945 0 0 0-.193.848l4.623 4.623a.509.509 0 0 1 0 .732.5.5 0 0 1-.363.15.493.493 0 0 1-.363-.15l-4.732-4.727-.006-.008-.641-.549a1.358 1.358 0 0 0-.738-.279.733.733 0 0 0-.539.242l-.018.018a.96.96 0 0 0 .035 1.344l1.162 1.162 4.141 4.135a.517.517 0 0 1-.369.883.5.5 0 0 1-.363-.15l-4.141-4.135-.031-.035a1.287 1.287 0 0 0-.736-.34.634.634 0 0 0-.521.314.588.588 0 0 1-.043.055.558.558 0 0 0-.107.467 1.515 1.515 0 0 0 .453.926l.539.539a.349.349 0 0 1 .025.027l3.5 3.2a.522.522 0 0 1 .037.732.529.529 0 0 1-.381.17.522.522 0 0 1-.352-.139l-3.449-3.162a.69.69 0 0 0-.109-.01 1 1 0 0 0-.694.425zm14.973 3.475a5.494 5.494 0 0 1-2.518 3.465 3.675 3.675 0 0 0 .914-.209 4.873 4.873 0 0 0 3.461-3.529c.006 0 .006-.006.006-.012.756-2.627-.3-6.711-.424-7.166l-.006-.012v-.018a.128.128 0 0 1-.012-.049v-.012l-.006-.006c-.061-.309-.32-1.314-.963-1.314s-.666 1.246-.666 1.254v.721c.334 1.488.873 4.587.213 6.886zm-7.4-10.26 3.3 3.438v-.785a3.323 3.323 0 0 1 .063-.631l-1.273-1.324-.018-.02v-.006l-.012-.006a.006.006 0 0 0-.006-.006 25.399 25.399 0 0 0-1.041-1.198.864.864 0 0 0-.66-.279.96.96 0 0 0-.7.291.635.635 0 0 0-.051.053c.201.234.348.414.395.469z" transform="translate(-22255.239 -24091.832)" style="fill:#fff"/>
            <path data-name="합치기 48" d="m22361.965 18125.365-.859-1.539a.723.723 0 0 1 .281-.977.559.559 0 0 1 .119-.051.715.715 0 0 1 .848.332l.859 1.537a.734.734 0 0 1 .061.545.712.712 0 0 1-.342.432.827.827 0 0 1-.123.057.756.756 0 0 1-.215.033.721.721 0 0 1-.629-.369zm6.035.061a.548.548 0 0 1-.141-.033.694.694 0 0 1-.4-.359.679.679 0 0 1-.035-.551l.584-1.678a.723.723 0 0 1 .775-.473 1.318 1.318 0 0 1 .129.029l.012.006a.676.676 0 0 1 .4.363.717.717 0 0 1 .033.551l-.584 1.668a.715.715 0 0 1-.678.482.763.763 0 0 1-.095-.005zm-2.713-.123a.728.728 0 0 1-.617-.686l-.084-2.436a.715.715 0 0 1 .686-.742.5.5 0 0 1 .129.006.712.712 0 0 1 .617.686l.084 2.436a.715.715 0 0 1-.686.742 1.039 1.039 0 0 1-.129-.009z" transform="translate(-22354.489 -18120.479)" style="fill:#fff"/>
        </g>
        <path data-name="사각형 2218" style="fill:none" d="M0 0h24v24H0z"/>
    </g>
</svg>
