<svg xmlns="http://www.w3.org/2000/svg" width="24" height="24" viewBox="0 0 24 24">
    <g data-name="그룹 3561">
        <g data-name="그룹 3162">
            <path data-name="합치기 61" d="m21853.652 23556.742-1.023-1.242a5.163 5.163 0 0 1-6.014.01l-1.016 1.232a.3.3 0 0 1-.23.113.3.3 0 0 1-.23-.49l1.012-1.23a5.178 5.178 0 0 1-1.607-2.809h-1.682a.3.3 0 0 1-.3-.3v-1.627l-1.141-.129a.542.542 0 0 1-.479-.58l.064-.863a.54.54 0 0 1 .609-.5l.141.018.225-2.84a.574.574 0 0 1-.354-.576l.082-.924a.616.616 0 0 1 .213-.395.578.578 0 0 1 .438-.113l1.7.242a.891.891 0 0 1 .061-.324.879.879 0 0 1 .9-.551l.545-1.354a.878.878 0 0 1 .779-1.566l2.814 1.117a.875.875 0 0 1-.307 1.691l-.314.785h2.387l-.316-.785a.877.877 0 0 1-.309-1.691l2.82-1.117a.877.877 0 0 1 .775 1.566l.549 1.354a.875.875 0 0 1 .4 1.686l-1.91.762h4.672a.979.979 0 0 1 .336 1.9v1.5h.018a.62.62 0 0 1 .621.621v.6a.62.62 0 0 1-.621.621h-1.187v.928a.3.3 0 0 1-.137.256l-2.176 1.369a5.2 5.2 0 0 1-1.365 2.016l1.023 1.244a.3.3 0 0 1-.041.42.312.312 0 0 1-.2.07.3.3 0 0 1-.225-.115zm-4.039-.869a4.581 4.581 0 1 0-2.918-1.059.285.285 0 0 1 .068.043.349.349 0 0 1 .053.055 4.542 4.542 0 0 0 2.797.961zm5.174-4.574a5.242 5.242 0 0 1-.088.947l1.477-.93v-.764h-1.443a5.221 5.221 0 0 1 .054.748zm-11.629.424h1.3a4.94 4.94 0 0 1-.018-.424 4.893 4.893 0 0 1 .045-.682l-1.328-.15zm1.439-1.693a5.217 5.217 0 0 1 .227-.686l-3.227-.416-.055.75 1.348.156zm13.363-.08a.016.016 0 0 0 .018-.018v-.6c0-.012-.006-.02-.018-.02h-3.57a5.466 5.466 0 0 1 .219.639zm-12.863-1.172a5.2 5.2 0 0 1 1.674-1.8l.078-.795-4.271-.582-.227 2.818zm12.242-.068v-1.443h-4.486a5.2 5.2 0 0 1 1.238 1.443zm-4.982-2.418a.375.375 0 0 0 .377.377h4.873a.378.378 0 0 0 0-.756h-4.873a.373.373 0 0 0-.377.378zm-4.947.328a5.134 5.134 0 0 1 2.174-.494v-1.986h-1.287l-.008.018a.886.886 0 0 1 .283 1.018.87.87 0 0 1-.555.514v.313a.3.3 0 0 1-.1.225.283.283 0 0 1-.193.072h-.043l-.234-.033zm4.4-.006a.979.979 0 0 1-.055-.322.99.99 0 0 1 .2-.6.878.878 0 0 1-.781-1.539l-.006-.018h-.98v2.018a5.145 5.145 0 0 1 1.621.46zm-4.437-.969-.016-.006.006.006zm-.3-.041a.33.33 0 0 1 .139-.023l-2.6-1.035a.907.907 0 0 1-.311-.209.3.3 0 0 1-.156.02l-1.838-.266-.074.824a.326.326 0 0 1 .1-.01.3.3 0 0 1 .182.08zm7.352-2.127-2.814 1.117a.284.284 0 0 0-.158.361.287.287 0 0 0 .365.158l2.814-1.123a.275.275 0 0 0-.105-.531.327.327 0 0 0-.107.018zm-9.742.154a.28.28 0 0 0 .158.359l2.814 1.123a.284.284 0 0 0 .361-.158.277.277 0 0 0-.154-.361l-.053-.018-.006-.006h-.006l-2.756-1.094a.274.274 0 0 0-.1-.018.28.28 0 0 0-.263.173zm6.514-1.035.527 1.307 2.152-.852-.527-1.312zm-5.6.455 2.152.852.059-.146a.247.247 0 0 1 .025-.062l.441-1.1-2.152-.857zm7.744-2.555-2.814 1.123a.276.276 0 0 0-.158.355.283.283 0 0 0 .359.16l2.613-1.041a.544.544 0 0 1 .059-.029c.018-.006.043-.012.066-.018l.082-.035a.276.276 0 0 0 .154-.361.279.279 0 0 0-.26-.172.327.327 0 0 0-.104.022zm-7.578.154a.282.282 0 0 0 .158.361l.09.035.059.018a.238.238 0 0 1 .053.029l2.613 1.041a.283.283 0 0 0 .361-.16.269.269 0 0 0-.154-.355l-2.814-1.123a.3.3 0 0 0-.1-.018.287.287 0 0 0-.269.172zm-.236 10.648a4.091 4.091 0 1 1 4.1 4.09 4.1 4.1 0 0 1-4.104-4.088zm.6 0a3.491 3.491 0 1 0 3.494-3.494 3.5 3.5 0 0 0-3.496 3.496zm-5.9 3.652v-2.381l-1.348 1.564a.3.3 0 0 1-.426.031.3.3 0 0 1-.029-.42l1.8-2.094v-10.7l-1.465.588a.246.246 0 0 1-.113.023.3.3 0 0 1-.277-.189.3.3 0 0 1 .166-.389l1.867-.75h.008l1-.4.576-1.148-.074-.033c-.373-.166-3.666-1.668-3.191-2.727s3.789.379 4.168.545 3.664 1.668 3.191 2.73c-.361.822-2.443.139-3.535-.287l-.65 1.287a.317.317 0 0 1-.154.148l-.916.367v10.941l1.8 2.094a.3.3 0 0 1-.029.42.3.3 0 0 1-.426-.031l-1.348-1.559v2.375a.3.3 0 0 1-.3.3.3.3 0 0 1-.297-.304zm4.229-16.074a2.171 2.171 0 0 0 1.064.064 2.236 2.236 0 0 0-.758-.744 13.425 13.425 0 0 0-4.416-1.963 2.227 2.227 0 0 0-1.064-.064 2.329 2.329 0 0 0 .758.75 12.448 12.448 0 0 0 2.121 1.182c.113.051.225.1.336.145h.01a11.287 11.287 0 0 0 1.946.631zm14.631 15.047v-2.133l-1.354 1.422a.3.3 0 1 1-.437-.414l1.791-1.881v-9.838l-.9-.33a.312.312 0 0 1-.16-.135l-.648-1.164a11.77 11.77 0 0 1-2.018.549c-.893.143-1.395.035-1.537-.33s.148-.787.893-1.295a11.735 11.735 0 0 1 1.832-.982l-.152-.312a.3.3 0 0 1 .137-.4.3.3 0 0 1 .4.137l.168.348a13.22 13.22 0 0 1 2.564-.756c.893-.143 1.4-.035 1.543.33s-.148.787-.9 1.295a12.315 12.315 0 0 1-2.363 1.205l.549.988.975.354a.208.208 0 0 1 .049.018l1.85.67a.3.3 0 0 1-.1.586.274.274 0 0 1-.1-.02l-1.473-.533v9.625l1.791 1.875a.3.3 0 0 1-.219.5.312.312 0 0 1-.219-.09l-1.354-1.422v2.133a.3.3 0 0 1-.6 0zm-4.682-14.484a6.777 6.777 0 0 0 2.967-.625.382.382 0 0 1 .066-.023l.266-.1a1.709 1.709 0 1 0-.385-.969l-.211.084a.111.111 0 0 1-.025.016.451.451 0 0 1-.055.02 6.8 6.8 0 0 0-2.628 1.597z" transform="translate(-21837.944 -23533.888)" style="fill:#fff"/>
            <path data-name="선 195" d="M0 .963A.3.3 0 0 1-.12.938a.3.3 0 0 1-.155-.4l.29-.658a.3.3 0 0 1 .4-.155.3.3 0 0 1 .155.4L.275.783A.3.3 0 0 1 0 .963z" transform="translate(5.017 2.278)" style="fill:#fff"/>
        </g>
        <path data-name="사각형 2218" style="fill:none" d="M0 0h24v24H0z"/>
    </g>
</svg>
