<svg xmlns="http://www.w3.org/2000/svg" width="24" height="24" viewBox="0 0 24 24">
    <g data-name="그룹 3558">
        <g data-name="그룹 3152">
            <path data-name="합치기 60" d="M21813.1 23555.385a7.957 7.957 0 0 1-4.789-2.186 7.275 7.275 0 0 1-2.328-4.369 4.367 4.367 0 0 1 1.5-4.244 9.668 9.668 0 0 1 3.949-1.785 2.378 2.378 0 0 0 1.992-2.029 3.7 3.7 0 0 1 1.064-2.182 2.888 2.888 0 0 1 2.969-.727 1.018 1.018 0 0 1 .662.633 1.055 1.055 0 0 1-.113.928l-.443.662a.719.719 0 0 0-.1.551.655.655 0 0 0 .08.2l4.912-4.7-.322-.309a.3.3 0 0 1-.012-.426.3.3 0 0 1 .426-.006l.344.326.209-.2-.334-.32a.305.305 0 0 1-.014-.426.3.3 0 0 1 .426-.006l.355.338.34-.324-.352-.332a.3.3 0 0 1 .414-.437l.371.354.34-.324-.363-.344a.3.3 0 0 1 .414-.437l.383.367.211-.2-.375-.355a.3.3 0 0 1 .414-.436l.395.375.211-.2-.387-.369a.3.3 0 0 1 .414-.432l.406.385.4-.379a.622.622 0 0 1 1.039.295l.344 1.383a1.83 1.83 0 0 1-.213 1.4l-1.578 2.559a1.659 1.659 0 0 1-1.088.758l-.68.141-5.859 6.061a.9.9 0 0 0 .143.613.69.69 0 0 0 .508.184 1.656 1.656 0 0 0 .68-.135 1.885 1.885 0 0 1 1.537-.078 1.552 1.552 0 0 1 .793.93.892.892 0 0 1 .035.371 2.23 2.23 0 0 1-.557 1.2 3.432 3.432 0 0 1-2.275 1.021 2.005 2.005 0 0 0-1.549.875 2.6 2.6 0 0 0-.4 1.141 6.713 6.713 0 0 1-.164.93c-.3 1.146-1.283 3.736-4.033 3.736-.11-.005-.229-.012-.352-.02zm2.08-16.078a2.756 2.756 0 0 0-.768 1.607 3.348 3.348 0 0 1-2.744 2.855 8.753 8.753 0 0 0-3.535 1.578 3.385 3.385 0 0 0-1.164 3.328 6.3 6.3 0 0 0 2.045 3.813 7 7 0 0 0 4.162 1.9c2.188.166 3.033-1.8 3.346-2.98a5.368 5.368 0 0 0 .131-.779 3.123 3.123 0 0 1 2.832-2.908c1.637-.178 1.9-1.023 1.951-1.318a.557.557 0 0 0-.25-.3.949.949 0 0 0-.732.09 2.678 2.678 0 0 1-1.105.213 1.648 1.648 0 0 1-1.229-.527 1.429 1.429 0 0 1-.24-.387l-.186.193a1.146 1.146 0 0 1-1.645.012l-.922-.918a1.141 1.141 0 0 1-.338-.832 1.176 1.176 0 0 1 .355-.822l1.668-1.6a1.67 1.67 0 0 1-.326-.668 1.711 1.711 0 0 1 .242-1.33l.443-.662a.043.043 0 0 0 .006-.035c-.006-.012-.012-.012-.012-.02a2.172 2.172 0 0 0-.625-.1 1.923 1.923 0 0 0-1.36.597zm.656 4.545a.141.141 0 0 0-.047.107.149.149 0 0 0 .047.111l.916.922a.178.178 0 0 0 .113.049.182.182 0 0 0 .111-.049l.885-.916a.538.538 0 0 1 .057-.059l5.709-5.916-.889-.855zm8.656-6.3.584-.117a.668.668 0 0 0 .432-.307l1.578-2.555a.857.857 0 0 0 .1-.639l-.189-.756-3.531 3.379zm-12.734 14.361-2.625-2.631a.389.389 0 0 1 0-.562l1.129-1.135a.407.407 0 0 1 .568 0l2.623 2.631a.389.389 0 0 1 0 .563l-1.129 1.135a.406.406 0 0 1-.566 0zm-1.779-2.914 2.063 2.063.563-.562-2.059-2.062zm4.58.686-3.2-3.2a.3.3 0 0 1 0-.426.3.3 0 0 1 .426 0l3.2 3.2a.3.3 0 0 1-.213.514.305.305 0 0 1-.213-.091zm1-.729-3.2-3.2a.3.3 0 0 1 0-.426.309.309 0 0 1 .426 0l3.2 3.2a.3.3 0 0 1 0 .426.312.312 0 0 1-.426 0z" transform="translate(-21805.058 -23531.56)" style="fill:#fff"/>
        </g>
        <path data-name="사각형 2218" style="fill:none" d="M0 0h24v24H0z"/>
    </g>
</svg>
