<svg data-name="그룹 3557" xmlns="http://www.w3.org/2000/svg" width="24" height="24" viewBox="0 0 24 24">
    <path data-name="사각형 2218" style="fill:none" d="M0 0h24v24H0z"/>
    <g data-name="그룹 3143">
        <path data-name="합치기 62" d="M22366.3 24111.063a2.538 2.538 0 0 1-1.684-.975l-.006-.006c-.033-.045-.965-1.24-2.107-2.65a196.12 196.12 0 0 0-2.115 2.65 2.574 2.574 0 0 1-1.689.98 2.03 2.03 0 0 1-1.416-.471l-.035-.031a1.794 1.794 0 0 1-.557-1.277 2.813 2.813 0 0 1 .926-1.953c.357-.359 1.457-1.529 2.547-2.693a32.293 32.293 0 0 0-.641-.715 5.015 5.015 0 0 0-2.881-1.107l-.018-.006-.049-.006a6.168 6.168 0 0 1-2.48-.779 7.034 7.034 0 0 1-1.035-.818.291.291 0 0 0-.043-.041 5.129 5.129 0 0 1-1.555-3.48 6.083 6.083 0 0 1 .381-2.371l.006-.006a5.125 5.125 0 0 1 1.1-1.549 4.875 4.875 0 0 1 3.795-1.41l.084.006a4.482 4.482 0 0 1 3.7 2.451 9.128 9.128 0 0 1 1.041 4.113l.006.02a4.574 4.574 0 0 0 .689 2.934l.012.006c.016.016.088.1.229.246.139-.15.221-.238.227-.246v.006l.006-.006a4.488 4.488 0 0 0 .7-2.934v-.02a9.163 9.163 0 0 1 1.041-4.113 4.505 4.505 0 0 1 3.7-2.457.434.434 0 0 0 .084-.006 4.9 4.9 0 0 1 3.795 1.41 5.226 5.226 0 0 1 1.1 1.555 5.936 5.936 0 0 1 .387 2.371 5.123 5.123 0 0 1-1.543 3.467.582.582 0 0 1-.084.086 7.147 7.147 0 0 1-1.006.787 6.146 6.146 0 0 1-2.529.785 5.158 5.158 0 0 0-2.9 1.113c-.2.213-.41.453-.635.711a237.446 237.446 0 0 0 2.541 2.7 2.775 2.775 0 0 1 .926 1.953 1.742 1.742 0 0 1-.551 1.271l-.043.037a2.041 2.041 0 0 1-1.277.477l-.144-.009zm-.98-1.518.006.006a1.638 1.638 0 0 0 1.033.629 1.162 1.162 0 0 0 .793-.271.884.884 0 0 0 .273-.631 2.04 2.04 0 0 0-.672-1.324c-.283-.283-1.061-1.105-2.494-2.643-.389.455-.791.941-1.186 1.422 1.227 1.509 2.24 2.8 2.245 2.812zm-.793-12.34a9.17 9.17 0 0 0-.207 1.725 5.051 5.051 0 0 1-.943 3.553c-.17.188-4.338 4.678-5.131 5.477a2.017 2.017 0 0 0-.666 1.313.87.87 0 0 0 .271.637 1.174 1.174 0 0 0 .787.271 1.686 1.686 0 0 0 1.041-.629l.006-.006c.031-.049 3.334-4.268 5.156-6.24l.018-.018.012-.012a6.012 6.012 0 0 1 3.371-1.344 9.882 9.882 0 0 0 1.24-.242l-.156-2.227-2.336.164a.446.446 0 0 1-.473-.412l-.15-2.137zm-9 4.484a10.349 10.349 0 0 0 1.186.236l.055.012a5.855 5.855 0 0 1 3.363 1.338l.02.012.012.018c.186.2.387.418.615.678l1.123-1.207c-.154-.168-.25-.27-.268-.293a5.171 5.171 0 0 1-.945-3.553 9.486 9.486 0 0 0-.211-1.73l-1.84-.127-.145 2.137a.441.441 0 0 1-.467.412l-2.342-.164zm16.307-4.617.182 2.664a4.13 4.13 0 0 0 .643-2.059 5.263 5.263 0 0 0-.316-2.021l-.006-.006a4.278 4.278 0 0 0-.926-1.283 3.968 3.968 0 0 0-3.1-1.131.3.3 0 0 0-.072.006 3.429 3.429 0 0 0-2.439 1.211l2.6-.182a.444.444 0 0 1 .479.412l.146 2.141 2.334-.162a.2.2 0 0 1 .033 0 .447.447 0 0 1 .436.41zm-18.232-2.705a4.3 4.3 0 0 0-.926 1.283l-.006.006a5.074 5.074 0 0 0-.314 2.021 4.13 4.13 0 0 0 .637 2.051l.188-2.662a.44.44 0 0 1 .477-.41l2.33.162.152-2.135a.444.444 0 0 1 .471-.418l2.6.182a3.419 3.419 0 0 0-2.432-1.211l-.078-.006a3.977 3.977 0 0 0-.266-.008 3.937 3.937 0 0 0-2.835 1.145z" transform="translate(-22350.564 -24089.598)" style="fill:#fff"/>
    </g>
</svg>
