<svg data-name="그룹 3563" xmlns="http://www.w3.org/2000/svg" width="24" height="24" viewBox="0 0 24 24">
    <path data-name="사각형 2218" style="fill:none" d="M0 0h24v24H0z"/>
    <g data-name="그룹 3167">
        <path data-name="합치기 65" d="M22454 24110a2 2 0 0 1-2-2v-14a2 2 0 0 1 2-2h14a2 2 0 0 1 2 2v14a2 2 0 0 1-2 2zm10.5-1h3.5a1 1 0 0 0 1-1v-14a1 1 0 0 0-1-1h-2v9.5a.5.5 0 0 1-.5.5h-1zm-6 0h5v-6h-1a.5.5 0 0 1-.5-.5v-9.5h-2v9.5a.5.5 0 0 1-.5.5h-1zm-5.5-15v14a1 1 0 0 0 1 1h3.5v-6h-1a.5.5 0 0 1-.5-.5v-9.5h-2a1 1 0 0 0-1 1z" transform="translate(-22449 -24089)" style="fill:#fff"/>
    </g>
</svg>
