<svg xmlns="http://www.w3.org/2000/svg" width="24.141" height="24" viewBox="0 0 24.141 24">
    <g data-name="그룹 3560">
        <g data-name="그룹 3165">
            <path data-name="합치기 63" d="m21906.137 23551.5-4.93-4.93a1.4 1.4 0 1 1 1.975-1.98l.031.031a5.493 5.493 0 0 0 1.516-.859 1.35 1.35 0 0 1 2-1.809l3.783 3.777a1.351 1.351 0 0 1-1.531 2.178 5.38 5.38 0 0 0-.945 1.535l.076.076a1.4 1.4 0 0 1 0 1.98 1.4 1.4 0 0 1-1.975 0zm-4.225-6.2a.4.4 0 0 0 0 .561l4.93 4.93a.4.4 0 0 0 .566-.561l-.244-.244-.041-.041-4.645-4.645a.4.4 0 0 0-.281-.115.408.408 0 0 0-.285.115zm5.359 3.379a7.453 7.453 0 0 1 .949-1.414l-2.787-2.787a7.966 7.966 0 0 1-1.449.914zm-1.742-6.021a.351.351 0 0 0 0 .5l3.777 3.783a.351.351 0 0 0 .5 0 .344.344 0 0 0 0-.5l-3.777-3.783a.354.354 0 0 0-.5 0zm.146 3.766a.385.385 0 1 1 .385.385.384.384 0 0 1-.384-.387zm3.406-3.4a.381.381 0 1 1 .383.385.381.381 0 0 1-.382-.391zm1.051-.971a.382.382 0 1 1 .379.379.383.383 0 0 1-.378-.385zm1.135-.975a.385.385 0 1 1 .385.385.383.383 0 0 1-.384-.391zm.977-1a.381.381 0 1 1 .383.383.381.381 0 0 1-.383-.387zm3.492-.26a3.947 3.947 0 0 0-2.973-2.908.509.509 0 0 1-.4-.586.5.5 0 0 1 .58-.4 5.151 5.151 0 0 1 1.6.662 4.8 4.8 0 0 1 2.164 3 .5.5 0 0 1-.367.6.877.877 0 0 1-.119.012.5.5 0 0 1-.485-.384zm1.406-.869a5.868 5.868 0 0 0-.727-1.7 3.494 3.494 0 0 0-2.748-1.762.5.5 0 1 1 .076-.992 4.51 4.51 0 0 1 3.535 2.246 6.939 6.939 0 0 1 .846 2 .507.507 0 0 1-.385.59.324.324 0 0 1-.105.012.506.506 0 0 1-.491-.398zm-3.818-.061a.382.382 0 1 1 .379.385.381.381 0 0 1-.379-.388zm4.334-2.447-1.455-1.523a.275.275 0 0 1-.082-.254.3.3 0 0 1 .16-.219l.975-.486a.274.274 0 0 1 .137-.035.326.326 0 0 1 .213.09l.969.975a.3.3 0 0 1 .059.338l-.484 1.033a.3.3 0 0 1-.225.172.411.411 0 0 1-.049 0 .3.3 0 0 1-.218-.094zm-.74-1.643.875.91.207-.449-.668-.668zm2.348 1.406a.5.5 0 0 1-.225-.668.5.5 0 0 1 .674-.225 1.172 1.172 0 0 0 1.205-.006 1.981 1.981 0 0 0 .834-1.566 5.1 5.1 0 0 1 .615-2.2.3.3 0 0 0-.047-.344l-.959-.957a.294.294 0 0 0-.318-.064 14.4 14.4 0 0 1-2.6.654 1.564 1.564 0 0 0-1.229.705 1.7 1.7 0 0 0 .117 1.311.5.5 0 1 1-.881.469 2.7 2.7 0 0 1-.141-2.217 2.5 2.5 0 0 1 1.955-1.248 13.352 13.352 0 0 0 2.406-.6 1.288 1.288 0 0 1 1.395.285l.953.957a1.286 1.286 0 0 1 .236 1.508 4.128 4.128 0 0 0-.51 1.742 2.97 2.97 0 0 1-1.3 2.418 2.122 2.122 0 0 1-1.105.314 2.426 2.426 0 0 1-1.075-.272z" transform="rotate(-2 -660822.675 637069.448)" style="fill:#fff"/>
            <path data-name="패스 1340" d="M166.764 130.052s2.19-.936 6.436-6.389a3.814 3.814 0 0 0 .526-1.313 2.028 2.028 0 0 1 1.913-1.378c1.945-.243 2.431-.972 2.431-.972" transform="rotate(-2 -3230.907 4653.262)" style="stroke:#fff;stroke-linecap:round;stroke-linejoin:round;stroke-miterlimit:10;fill:#fff"/>
            <path data-name="패스 1341" d="M181.537 140.313s.938-2.2 6.391-6.443a3.814 3.814 0 0 1 1.313-.526 2.028 2.028 0 0 0 1.378-1.913c.243-1.945.972-2.431.972-2.431" transform="rotate(-2 -3419.733 4980.272)" style="stroke:#fff;stroke-linecap:round;stroke-linejoin:round;stroke-miterlimit:10;fill:#fff"/>
        </g>
        <path data-name="사각형 2218" style="fill:none" d="M0 0h24v24H0z" transform="translate(.141)"/>
    </g>
</svg>
