<svg xmlns="http://www.w3.org/2000/svg" width="24" height="24" viewBox="0 0 24 24">
    <g data-name="그룹 3559">
        <g data-name="그룹 3157">
            <path data-name="합치기 57" d="M21738.879 23551.17a5.386 5.386 0 0 1-3.465-1.631 8.65 8.65 0 0 1-1.7-1.926 5.83 5.83 0 0 1-.344-5.6c.047-.084.1-.172.148-.254a3.04 3.04 0 0 1 1.7-1.271c.344-.105.373-.277.385-.342a1.156 1.156 0 0 1 .531-.811.747.747 0 0 1 .668-.076.906.906 0 0 1 .533.631.5.5 0 0 1 .035.154c.012-.006.023-.006.035-.012h.018a3.178 3.178 0 0 0 2.3-1.826.12.12 0 0 0 0-.119.094.094 0 0 0-.082-.047l-.018-.006a.487.487 0 0 1-.35-.146.907.907 0 0 1 .443-1.578.471.471 0 0 1 .279-.012.55.55 0 0 0 .578-.2 2.846 2.846 0 0 1 .869-.982 3.562 3.562 0 0 1 2.109-.584 5.108 5.108 0 0 1 2.877 1.113l4.459-4.187.873-1.2-.484-.449-.26.248a.3.3 0 0 1-.207.082.326.326 0 0 1-.219-.094.306.306 0 0 1 .014-.426l.922-.875a.3.3 0 1 1 .412.432l-.227.217.4.377.49-.676a.788.788 0 0 1 1.2-.1l1.111 1.111a.8.8 0 0 1 .23.621.783.783 0 0 1-.326.578l-.666.486.393.42.273-.227a.3.3 0 0 1 .379.467l-.479.391a.263.263 0 0 1-.027.021l-.48.393a.3.3 0 0 1-.189.07.289.289 0 0 1-.23-.111.293.293 0 0 1 .041-.42l.246-.2-.416-.447-1.2.873-4.2 4.475a4.49 4.49 0 0 1 .887 4.209 3.511 3.511 0 0 1-1.5 1.777c-.146.09-.318.236-.318.4a1.11 1.11 0 0 1-.414.922.752.752 0 0 1-.744.023 1.2 1.2 0 0 1-.562-.613 2.009 2.009 0 0 0-.479.307c-1.146.922-1.537 1.785-1.412 2.121h.1a.86.86 0 0 1 .91.863.925.925 0 0 1-.779.9.749.749 0 0 0-.555.344 4.215 4.215 0 0 1-1.615 1.773 5.282 5.282 0 0 1-2.564.656 2.489 2.489 0 0 1-.337-.007zm2.4-1.518a3.209 3.209 0 0 0 1.219-1.365 1.626 1.626 0 0 1 .779-.715.712.712 0 0 1-.312-.213.682.682 0 0 1-.1-.16 1.719 1.719 0 0 1 .113-1.738 5.879 5.879 0 0 1 1.514-1.719c.59-.469 1.051-.639 1.447-.521a.81.81 0 0 1 .426.3 1.61 1.61 0 0 1 .738-.887 2.552 2.552 0 0 0 1.088-1.266 3.477 3.477 0 0 0-.643-3.131l-2.609 2.775a.762.762 0 0 1-.549.236.75.75 0 0 1-.537-.223l-.3-.3-1.377 1.395.555.555a.3.3 0 0 1 0 .426.305.305 0 0 1-.213.088.3.3 0 0 1-.213-.088l-.553-.553-1.684 1.7.273.273a.869.869 0 0 1 .254.633.844.844 0 0 1-.289.615l-3.818 3.4a4.2 4.2 0 0 0 4.795.483zm-5.537-1.152 3.795-3.369-.764-.758-3.395 3.76c.14.146.265.267.368.367zm-.242-7.059a2.078 2.078 0 0 0-1.141.84c-.043.07-.078.143-.119.207a4.85 4.85 0 0 0 .313 4.586c.063.1.125.189.188.277l3.395-3.764a.853.853 0 0 1 1.242-.029l.27.27 1.686-1.7-.531-.531a.3.3 0 0 1 .426-.426l.529.529 1.379-1.393-.26-.26a.744.744 0 0 1-.219-.549.729.729 0 0 1 .236-.539l2.785-2.613c-1.939-1.363-3.3-.66-3.689-.4a1.9 1.9 0 0 0-.561.65 1.406 1.406 0 0 1-1.088.7 1.061 1.061 0 0 1 .242.289 1.116 1.116 0 0 1 0 1.105 4.134 4.134 0 0 1-2.914 2.3l-.018.006a1.04 1.04 0 0 1-1.059-.182 1.121 1.121 0 0 1-.123-.154 1.49 1.49 0 0 1-.969.781zm16.006-9.486a.32.32 0 0 1-.055.061l-7.979 7.494.922.928 7.5-7.986a.3.3 0 0 1 .055-.047l2.381-1.736-1.094-1.094zm-10.148 14.865a.817.817 0 0 1-.391-.645.286.286 0 0 1 .053-.2l1.193-1.672a.227.227 0 0 0-.018-.064.535.535 0 0 0-.283.076.3.3 0 0 1-.408-.123.3.3 0 0 1 .119-.4.975.975 0 0 1 .881-.066.715.715 0 0 1 .318.668.317.317 0 0 1-.059.178l-1.176 1.65a.113.113 0 0 0 .029.053.523.523 0 0 0 .26-.119.3.3 0 0 1 .414.078.3.3 0 0 1-.072.418 1.1 1.1 0 0 1-.6.225.574.574 0 0 1-.257-.057zm-3.643-3.895a.814.814 0 0 1-.643-.391.851.851 0 0 1 .164-.863.3.3 0 0 1 .5.344c-.119.166-.119.242-.119.26a.338.338 0 0 0 .053.029l1.65-1.182a.31.31 0 0 1 .176-.053.716.716 0 0 1 .668.313.967.967 0 0 1-.064.881.3.3 0 0 1-.408.125.307.307 0 0 1-.117-.408.482.482 0 0 0 .07-.285.133.133 0 0 0-.059-.018l-1.674 1.189a.316.316 0 0 1-.176.059z" transform="translate(-21732.074 -23527.622)" style="fill:#fff"/>
        </g>
        <path data-name="사각형 2218" style="fill:none" d="M0 0h24v24H0z"/>
    </g>
</svg>
