<svg data-name="그룹 3556" xmlns="http://www.w3.org/2000/svg" width="24" height="24" viewBox="0 0 24 24">
    <path data-name="사각형 2218" style="fill:none" d="M0 0h24v24H0z"/>
    <g data-name="그룹 3147">
        <path data-name="합치기 59" d="M21787.193 23557.607a.484.484 0 0 1 0-.969h3.17l.01-2.523a7.025 7.025 0 0 1-5.238-2.391c-2.205-2.7-1.555-6.609-1.525-6.775a.487.487 0 0 1 .959.166c-.006.035-.6 3.648 1.324 6a6.3 6.3 0 0 0 4.973 2.053 5.9 5.9 0 0 0 4.859-1.768c2.033-2.336 1.4-6.244 1.395-6.285a.486.486 0 0 1 .4-.557.481.481 0 0 1 .557.4c.029.178.715 4.393-1.615 7.078a6.6 6.6 0 0 1-5.121 2.107l-.008 2.5h3.285a.484.484 0 0 1 0 .969zm-1.088-10.807v-6.18a4.75 4.75 0 1 1 9.5 0v6.18a4.75 4.75 0 1 1-9.5 0zm4.748 3.783a3.789 3.789 0 0 0 3.746-3.252h-2.3a.683.683 0 1 1 0-1.365h2.342v-1.58h-2.341a.681.681 0 1 1 0-1.361h2.341v-1.875h-2.342a.683.683 0 0 1-.691-.68.691.691 0 0 1 .691-.691h2.248a3.781 3.781 0 0 0-7.375 0h2.154a.686.686 0 0 1 .68.691.678.678 0 0 1-.68.68h-2.248v1.873h2.248a.681.681 0 0 1 0 1.361h-2.248v1.578h2.248a.683.683 0 0 1 0 1.365h-2.211a3.788 3.788 0 0 0 3.739 3.257z" transform="translate(-21778.846 -23534.738)" style="fill:#fff"/>
    </g>
</svg>
